<?xml version="1.0" encoding="UTF-8" standalone="no"?>
<!-- Created with Inkscape (http://www.inkscape.org/) -->

<svg
   xmlns:dc="http://purl.org/dc/elements/1.1/"
   xmlns:cc="http://creativecommons.org/ns#"
   xmlns:rdf="http://www.w3.org/1999/02/22-rdf-syntax-ns#"
   xmlns:svg="http://www.w3.org/2000/svg"
   xmlns="http://www.w3.org/2000/svg"
   xmlns:sodipodi="http://sodipodi.sourceforge.net/DTD/sodipodi-0.dtd"
   xmlns:inkscape="http://www.inkscape.org/namespaces/inkscape"
   width="53.253296mm"
   height="8.7643204mm"
   viewBox="0 0 188.69278 31.054678"
   id="svg4187"
   version="1.1"
   inkscape:version="0.91 r13725"
   sodipodi:docname="grafolean_logo.svg">
  <defs
     id="defs4189" />
  <sodipodi:namedview
     id="base"
     pagecolor="#ffffff"
     bordercolor="#666666"
     borderopacity="1.0"
     inkscape:pageopacity="0.0"
     inkscape:pageshadow="2"
     inkscape:zoom="1.979899"
     inkscape:cx="38.448057"
     inkscape:cy="-25.637555"
     inkscape:document-units="px"
     inkscape:current-layer="layer1"
     showgrid="false"
     fit-margin-top="0"
     fit-margin-left="0"
     fit-margin-right="0"
     fit-margin-bottom="0"
     inkscape:window-width="1920"
     inkscape:window-height="1151"
     inkscape:window-x="0"
     inkscape:window-y="25"
     inkscape:window-maximized="1" />
  <metadata
     id="metadata4192">
    <rdf:RDF>
      <cc:Work
         rdf:about="">
        <dc:format>image/svg+xml</dc:format>
        <dc:type
           rdf:resource="http://purl.org/dc/dcmitype/StillImage" />
        <dc:title></dc:title>
      </cc:Work>
    </rdf:RDF>
  </metadata>
  <g
     inkscape:label="Layer 1"
     inkscape:groupmode="layer"
     id="layer1"
     transform="translate(-128.81043,-373.40015)">
    <path
       inkscape:connector-curvature="0"
       id="path4740"
       style="font-style:normal;font-variant:normal;font-weight:200;font-stretch:normal;font-size:medium;line-height:125%;font-family:'DejaVu Sans';-inkscape-font-specification:'DejaVu Sans Ultra-Light';letter-spacing:0px;word-spacing:0px;fill:#707070;fill-opacity:1;stroke:none;stroke-width:1px;stroke-linecap:butt;stroke-linejoin:miter;stroke-opacity:1"
       d="m 148.95466,401.3103 1.29043,-10.21484 -7.4414,0 0.20233,-1.60156 9.375,0 -1.6112,12.7539 q -2.22062,1.03516 -4.78477,1.54297 -2.56662,0.52735 -5.42311,0.56641 -6.32812,0 -9.377,-4.00391 -3.07088,-3.98437 -2.17029,-11.11328 0.90306,-7.14844 4.98309,-11.15234 4.05803,-3.98438 10.38615,-3.98438 2.61719,0 4.87479,0.52735 2.2722,0.5664 4.08715,1.66015 l -0.23934,1.89453 q -1.83447,-1.09375 -4.00902,-1.66015 -2.15747,-0.54688 -4.61841,-0.54688 -5.8789,0 -9.25004,3.33985 -3.36868,3.32031 -4.20265,9.92187 -0.84631,6.69922 1.67606,10.07813 2.5199,3.39843 8.3988,3.39843 2.40235,0 4.33882,-0.33203 1.91941,-0.35156 3.51461,-1.07422 z" />
    <path
       inkscape:connector-curvature="0"
       id="path4742"
       style="font-style:normal;font-variant:normal;font-weight:200;font-stretch:normal;font-size:medium;line-height:125%;font-family:'DejaVu Sans';-inkscape-font-specification:'DejaVu Sans Ultra-Light';letter-spacing:0px;word-spacing:0px;fill:#707070;fill-opacity:1;stroke:none;stroke-width:1px;stroke-linecap:butt;stroke-linejoin:miter;stroke-opacity:1"
       d="m 173.82702,383.45874 q -0.40255,-0.21484 -1.12499,-0.37109 -0.64926,-0.11719 -1.66488,-0.11719 -3.32031,0 -5.8187,2.46094 -1.97042,1.99218 -2.58233,6.83593 l -1.45575,11.52344 -1.75782,0 2.76346,-21.875 1.75782,0 -0.51815,4.10156 q 1.10096,-1.75781 2.83597,-2.96875 2.39722,-1.66015 5.36597,-1.66015 0.76172,0 1.32073,0.0586 0.58594,0 1.11554,0.13672 l -0.23687,1.875 z" />
    <path
       inkscape:connector-curvature="0"
       id="path4744"
       style="font-style:normal;font-variant:normal;font-weight:200;font-stretch:normal;font-size:medium;line-height:125%;font-family:'DejaVu Sans';-inkscape-font-specification:'DejaVu Sans Ultra-Light';letter-spacing:0px;word-spacing:0px;fill:#707070;fill-opacity:1;stroke:none;stroke-width:1px;stroke-linecap:butt;stroke-linejoin:miter;stroke-opacity:1"
       d="m 186.17725,391.44702 q -4.33594,0 -6.44492,1.54297 -2.109,1.54297 -2.48404,4.51172 -0.36517,2.89062 1.0639,4.10156 1.42905,1.21094 3.59702,1.21094 4.10156,0 6.33762,-3.47656 2.2556,-3.47657 2.64298,-6.54297 l 0.17025,-1.34766 -4.88281,0 z m 6.71649,-0.13672 -1.57665,12.48047 -1.77735,0 0.75008,-5.9375 q -2.05412,4.35547 -4.6851,5.54688 -2.09356,0.95703 -4.04668,0.95703 -3.26172,0 -4.91713,-1.73828 -1.65293,-1.75782 -1.22361,-5.15625 0.42932,-3.39844 3.12733,-5.42969 2.70048,-2.05078 8.24735,-2.05078 l 4.45313,0 0.0444,-0.35156 q 0.36764,-2.91016 -1.05565,-4.78516 -1.40375,-1.875 -5.19281,-1.875 -1.875,0 -3.91696,0.70312 -1.30675,0.44922 -3.47165,1.81641 l 0.24427,-1.93359 q 1.87398,-1.07422 3.43464,-1.52344 2.26892,-0.64453 4.28064,-0.64453 3.86719,0 6.07111,2.34375 1.91383,2.01172 1.21063,7.57812 z" />
    <path
       inkscape:connector-curvature="0"
       id="path4746"
       style="font-style:normal;font-variant:normal;font-weight:200;font-stretch:normal;font-size:medium;line-height:125%;font-family:'DejaVu Sans';-inkscape-font-specification:'DejaVu Sans Ultra-Light';letter-spacing:0px;word-spacing:0px;fill:#707070;fill-opacity:1;stroke:none;stroke-width:1px;stroke-linecap:butt;stroke-linejoin:miter;stroke-opacity:1"
       d="m 213.65241,373.40015 -0.19245,1.52343 -2.53906,0 q -1.99219,0 -3.17766,1.03516 -1.44943,1.26953 -1.79733,4.02344 l -0.24427,1.93359 5.89844,0 -0.19246,1.52344 -5.89844,0 -2.571,20.35156 -1.81641,0 2.571,-20.35156 -3.4375,0 0.19246,-1.52344 3.4375,0 0.19245,-1.52344 q 0.4614,-3.65234 2.33129,-5.3125 1.85281,-1.67968 4.74344,-1.67968 l 2.5,0 z" />
    <path
       inkscape:connector-curvature="0"
       id="path4748"
       style="font-style:normal;font-variant:normal;font-weight:200;font-stretch:normal;font-size:medium;line-height:125%;font-family:'DejaVu Sans';-inkscape-font-specification:'DejaVu Sans Ultra-Light';letter-spacing:0px;word-spacing:0px;fill:#707070;fill-opacity:1;stroke:none;stroke-width:1px;stroke-linecap:butt;stroke-linejoin:miter;stroke-opacity:1"
       d="m 229.75915,385.66577 q -1.59309,-2.69531 -4.93294,-2.69531 -3.33984,0 -5.61147,2.67578 -2.28868,2.65625 -2.86111,7.1875 -0.58724,4.64844 1.01079,7.30469 1.59557,2.67578 4.95494,2.67578 3.33985,0 5.61147,-2.67578 2.29362,-2.69531 2.87592,-7.30469 0.56502,-4.47266 -1.0476,-7.16797 z m -4.75262,-4.27734 q 4.17969,0 6.20679,3.125 2.04416,3.14453 1.38784,8.33984 -0.67853,5.3711 -3.51225,8.47656 -2.81665,3.125 -6.99634,3.125 -4.21875,0 -6.26785,-3.10546 -2.02956,-3.10547 -1.34856,-8.4961 0.66372,-5.2539 3.49744,-8.35937 2.83371,-3.10547 7.03293,-3.10547 z" />
    <path
       inkscape:connector-curvature="0"
       id="path4750"
       style="font-style:normal;font-variant:normal;font-weight:200;font-stretch:normal;font-size:medium;line-height:125%;font-family:'DejaVu Sans';-inkscape-font-specification:'DejaVu Sans Ultra-Light';letter-spacing:0px;word-spacing:0px;fill:#3b60b3;fill-opacity:1;stroke:none;stroke-width:1px;stroke-linecap:butt;stroke-linejoin:miter;stroke-opacity:1"
       d="m 242.75397,373.40015 1.79688,0 -3.83923,30.39062 -1.79688,0 3.83923,-30.39062 z" />
    <path
       inkscape:connector-curvature="0"
       id="path4752"
       style="font-style:normal;font-variant:normal;font-weight:200;font-stretch:normal;font-size:medium;line-height:125%;font-family:'DejaVu Sans';-inkscape-font-specification:'DejaVu Sans Ultra-Light';letter-spacing:0px;word-spacing:0px;fill:#3b60b3;fill-opacity:1;stroke:none;stroke-width:1px;stroke-linecap:butt;stroke-linejoin:miter;stroke-opacity:1"
       d="m 268.5545,391.95483 -0.14311,1.13282 -16.60156,0 q -0.66619,5.27343 1.11811,7.38281 1.96955,2.34375 6.4422,2.34375 1.17188,0 3.16962,-0.50781 2.01728,-0.50782 4.05965,-1.52344 l -0.23934,1.89453 q -2.03722,0.82031 -4.12275,1.25 -2.08553,0.42969 -3.27694,0.42969 -5.05859,0 -7.27176,-2.73438 -2.4058,-2.91015 -1.6952,-8.53515 0.73774,-5.83985 3.63952,-8.71094 2.97515,-2.98828 7.60406,-2.98828 4.29687,0 6.12661,2.83203 1.79293,2.96875 1.19089,7.73437 z m -1.76706,-0.39062 q 0.5823,-4.60938 -1.22154,-6.71875 -1.50141,-1.875 -4.48969,-1.875 -3.26172,0 -5.71549,1.95312 -2.26071,1.81641 -3.28031,6.64063 l 14.70703,0 z" />
    <path
       inkscape:connector-curvature="0"
       id="path4754"
       style="font-style:normal;font-variant:normal;font-weight:200;font-stretch:normal;font-size:medium;line-height:125%;font-family:'DejaVu Sans';-inkscape-font-specification:'DejaVu Sans Ultra-Light';letter-spacing:0px;word-spacing:0px;fill:#3b60b3;fill-opacity:1;stroke:none;stroke-width:1px;stroke-linecap:butt;stroke-linejoin:miter;stroke-opacity:1"
       d="m 284.92725,391.44702 q -4.33594,0 -6.44492,1.54297 -2.109,1.54297 -2.48404,4.51172 -0.36517,2.89062 1.0639,4.10156 1.42905,1.21094 3.59702,1.21094 4.10156,0 6.33762,-3.47656 2.2556,-3.47657 2.64298,-6.54297 l 0.17025,-1.34766 -4.88281,0 z m 6.71649,-0.13672 -1.57665,12.48047 -1.77735,0 0.75008,-5.9375 q -2.05412,4.35547 -4.6851,5.54688 -2.09356,0.95703 -4.04668,0.95703 -3.26172,0 -4.91713,-1.73828 -1.65293,-1.75782 -1.22361,-5.15625 0.42932,-3.39844 3.12733,-5.42969 2.70048,-2.05078 8.24735,-2.05078 l 4.45313,0 0.0444,-0.35156 q 0.36764,-2.91016 -1.05565,-4.78516 -1.40375,-1.875 -5.19281,-1.875 -1.875,0 -3.91696,0.70312 -1.30675,0.44922 -3.47165,1.81641 l 0.24427,-1.93359 q 1.87398,-1.07422 3.43464,-1.52344 2.26892,-0.64453 4.28064,-0.64453 3.86719,0 6.07111,2.34375 1.91383,2.01172 1.21063,7.57812 z" />
    <path
       inkscape:connector-curvature="0"
       id="path4756"
       style="font-style:normal;font-variant:normal;font-weight:200;font-stretch:normal;font-size:medium;line-height:125%;font-family:'DejaVu Sans';-inkscape-font-specification:'DejaVu Sans Ultra-Light';letter-spacing:0px;word-spacing:0px;fill:#3b60b3;fill-opacity:1;stroke:none;stroke-width:1px;stroke-linecap:butt;stroke-linejoin:miter;stroke-opacity:1"
       d="m 317.34049,390.58765 -1.66794,13.20312 -1.79687,0 1.65314,-13.08594 q 0.53789,-4.25781 -0.60971,-5.99609 -1.14759,-1.73828 -3.80384,-1.73828 -3.10546,0 -5.54937,1.875 -2.46589,1.89453 -3.05806,6.58203 l -1.56185,12.36328 -1.79687,0 2.76346,-21.875 1.79687,0 -0.51815,4.10156 q 1.2087,-1.99218 2.90444,-3.04687 2.50454,-1.58203 5.29751,-1.58203 3.24219,0 4.89697,2.20703 1.65725,2.1875 1.05027,6.99219 z" />
  </g>
</svg>
